<?xml version="1.0" encoding="utf-8" ?>
<svg xmlns="http://www.w3.org/2000/svg" xmlns:xlink="http://www.w3.org/1999/xlink" width="1820" height="1024">

	<path fill="url(#gradient_0)" d="M1281.49 535.237C1282.4 530.043 1281.41 524.655 1282.25 519.393C1284.66 521.863 1281.72 528.331 1284.79 531.948C1295.49 533.173 1324.24 505.051 1329.28 504.008C1328.47 507.351 1320.75 512.562 1317.81 514.32C1317.24 514.66 1317.13 514.695 1316.61 514.934C1318.82 520.526 1318.88 722.727 1316.94 727.351C1316.87 727.519 1316.79 727.68 1316.71 727.845C1309.12 734.135 1297.73 738.801 1289.02 743.57L1220 781.116L1021.08 888.303C984.576 907.745 947.654 926.589 911.43 946.53L638.993 802.837L554.15 758.812C540.613 751.766 526.174 745.183 513.184 737.209C509.364 734.864 505.817 731.233 504.463 726.865C501.021 715.765 503.012 670.321 503.024 656.651L503.104 511.443C503.382 512.329 503.633 513.853 504.097 514.606C506.016 517.72 524.749 527.321 528.875 529.824C528.024 568.088 528.721 606.513 528.753 644.796C528.77 664.926 526.895 689.481 529.661 709.15C530.136 712.527 531.644 714.847 533.754 717.458C533.866 717.597 533.976 717.739 534.089 717.878C535.035 719.039 536.11 719.884 537.41 720.605C558.586 732.349 580.399 743.092 601.894 754.243L701.223 806.112C771.115 842.574 840.584 880.159 910.852 915.847C951.842 891.817 994.757 870.557 1036.69 848.222L1230.86 743.449C1238.63 739.24 1289.4 713.344 1292.08 709.514C1293.81 705.016 1294.43 535.748 1292.48 529.696C1289.79 532.232 1285.11 534.612 1281.49 535.237Z"/>
	<path fill="#FBF6DF" d="M1281.49 535.237C1285.11 534.612 1289.79 532.232 1292.48 529.696C1294.43 535.748 1293.81 705.016 1292.08 709.514C1289.4 713.344 1238.63 739.24 1230.86 743.449L1036.69 848.222C994.757 870.557 951.842 891.817 910.852 915.847C840.584 880.159 771.115 842.574 701.223 806.112L601.894 754.243C580.399 743.092 558.586 732.349 537.41 720.605C536.11 719.884 535.035 719.039 534.089 717.878C533.976 717.739 533.866 717.597 533.754 717.458C531.644 714.847 530.136 712.527 529.661 709.15C526.895 689.481 528.77 664.926 528.753 644.796C528.721 606.513 528.024 568.088 528.875 529.824C538.927 535.351 548.966 540.901 559.132 546.216C558.302 576.254 558.679 606.629 559.145 636.678L559.273 697.898L572.388 704.784L580.861 708.976C605.163 721.959 629.812 734.305 654.019 747.454L660.096 750.603C676.884 760.274 694.815 769.788 712.412 777.872L724.062 784.311L777.225 811.837C781.592 814.129 785.933 816.505 790.349 818.7C811.54 806.362 834.224 796.374 855.684 784.451C867.673 797.33 879.792 810.113 891.537 823.214L898.285 830.921L910.365 844.511C918.213 835.53 929.082 820.502 938.717 814.101L969.45 798.466L978.39 793.374C997.689 782.333 1019 773.753 1037.67 761.84C1043.04 770.643 1035.33 802.781 1039.72 811.847C1042.32 810.846 1044.7 810.172 1046.49 807.907C1052.65 806.671 1106.43 778.129 1109.78 774.206C1112.87 773.48 1116.33 772.059 1118.41 769.603C1123.88 768.454 1176.52 740.406 1178.93 736.938C1182.4 735.824 1188.06 733.997 1189.9 730.716C1191.78 724.146 1192.3 686.968 1189.35 680.845C1193.71 679.63 1199.67 676.769 1202.97 673.628C1210.98 671.081 1252.26 649.192 1257.91 643.606C1260.77 638.568 1259.13 561.536 1259.11 548.562L1259.77 548.33C1264.05 544.902 1279.73 539.309 1281.49 535.237Z"/>
	<path fill="#2098A6" d="M898.285 830.921L910.365 844.511C908.689 856.626 911.275 869.261 909.686 881.355C892.289 872.019 874.581 863.295 857.309 853.721C870.606 845.583 884.681 838.556 898.285 830.921Z"/>
	<path fill="#65D0D2" d="M969.45 798.466C969.427 805.833 967.894 845.261 970.547 849.622C961.943 854.677 916.16 880.406 909.686 881.355C911.275 869.261 908.689 856.626 910.365 844.511C918.213 835.53 929.082 820.502 938.717 814.101L969.45 798.466Z"/>
	<path fill="#65D0D2" d="M1259.11 548.562L1259.77 548.33C1260.38 564.139 1261.27 689.849 1258.5 693.918C1254.56 698.196 1197.12 728.766 1189.9 730.716C1191.78 724.146 1192.3 686.968 1189.35 680.845C1193.71 679.63 1199.67 676.769 1202.97 673.628C1210.98 671.081 1252.26 649.192 1257.91 643.606C1260.77 638.568 1259.13 561.536 1259.11 548.562Z"/>
	<path fill="#65D0D2" d="M1037.67 761.84C1043.04 770.643 1035.33 802.781 1039.72 811.847C1035.83 816.187 987.467 840.449 978.486 845.366L970.547 849.622C967.894 845.261 969.427 805.833 969.45 798.466L978.39 793.374C997.689 782.333 1019 773.753 1037.67 761.84Z"/>
	<path fill="#2098A6" d="M969.45 798.466L978.39 793.374L978.486 845.366L970.547 849.622C967.894 845.261 969.427 805.833 969.45 798.466Z"/>
	<path fill="#2098A6" d="M855.684 784.451C867.673 797.33 879.792 810.113 891.537 823.214L898.285 830.921C884.681 838.556 870.606 845.583 857.309 853.721C853.166 851.72 849.139 849.416 845.085 847.236C826.694 837.989 808.516 828.376 790.349 818.7C811.54 806.362 834.224 796.374 855.684 784.451Z"/>
	<path fill="#65D0D2" d="M845.085 847.236C860.904 840.045 875.826 830.706 891.537 823.214L898.285 830.921C884.681 838.556 870.606 845.583 857.309 853.721C853.166 851.72 849.139 849.416 845.085 847.236Z"/>
	<path fill="#05495D" d="M910.285 78.7036C942.912 94.5946 974.873 112.606 1007.05 129.445L1215.84 239.272C1229.57 246.531 1312.04 288.138 1316.88 293.408L1318.9 294.782C1321.24 312.139 1318.03 338.721 1318.82 357.624C1327.91 354.414 1390.75 322.311 1394.44 317.201C1401.86 330.879 1389.64 393.8 1384.88 409.941C1377.71 434.243 1353.5 490.419 1330.63 503.344C1330.19 503.589 1329.73 503.794 1329.28 504.008C1324.24 505.051 1295.49 533.173 1284.79 531.948C1281.72 528.331 1284.66 521.863 1282.25 519.393C1281.41 524.655 1282.4 530.043 1281.49 535.237C1279.73 539.309 1264.05 544.902 1259.77 548.33L1259.11 548.562C1259.13 561.536 1260.77 638.568 1257.91 643.606C1252.26 649.192 1210.98 671.081 1202.97 673.628C1199.67 676.769 1193.71 679.63 1189.35 680.845C1192.3 686.968 1191.78 724.146 1189.9 730.716C1188.06 733.997 1182.4 735.824 1178.93 736.938C1176.52 740.406 1123.88 768.454 1118.41 769.603C1116.33 772.059 1112.87 773.48 1109.78 774.206C1106.43 778.129 1052.65 806.671 1046.49 807.907C1044.7 810.172 1042.32 810.846 1039.72 811.847C1035.33 802.781 1043.04 770.643 1037.67 761.84C1019 773.753 997.689 782.333 978.39 793.374L969.45 798.466L938.717 814.101C929.082 820.502 918.213 835.53 910.365 844.511L898.285 830.921L891.537 823.214C879.792 810.113 867.673 797.33 855.684 784.451C834.224 796.374 811.54 806.362 790.349 818.7C785.933 816.505 781.592 814.129 777.225 811.837L724.062 784.311L712.412 777.872C694.815 769.788 676.884 760.274 660.096 750.603L654.019 747.454C629.812 734.305 605.163 721.959 580.861 708.976L572.388 704.784L559.273 697.898L559.145 636.678C558.679 606.629 558.302 576.254 559.132 546.216C548.966 540.901 538.927 535.351 528.875 529.824C524.749 527.321 506.016 517.72 504.097 514.606C503.633 513.853 503.382 512.329 503.104 511.443C499.231 508.091 495.459 504.612 491.753 501.079C456.057 467.048 432.387 422.109 425.046 373.334C422.239 354.686 421.768 335.76 421.34 316.936C449.152 331.562 476.866 346.431 504.908 360.61C509.544 350.407 502.155 312.797 506.818 298.268C507.568 295.932 508.694 293.067 510.768 291.612C524.496 281.974 541.17 274.744 556.018 266.909L635.694 224.481L910.285 78.7036Z"/>
	<path fill="#65D0D2" d="M559.132 546.216L559.587 548.703L559.558 628.04C577.029 618.579 594.608 609.277 611.974 599.626C619.267 595.572 627.192 591.729 634.097 587.068C636.815 588.467 639.548 590.056 642.366 591.227C628.8 599.559 614.514 606.827 600.541 614.454C586.786 621.963 573.273 629.873 559.145 636.678C558.679 606.629 558.302 576.254 559.132 546.216Z"/>
	<path fill="#2098A6" d="M655.149 598.478L695.407 620.554L700.655 634.318C690.161 641.622 666.474 655.111 654.885 659.472C654.197 639.308 654.599 618.658 655.149 598.478Z"/>
	<path fill="#FBF6DF" d="M466.247 429.274L696.345 549.285L696.662 562.554C686.815 560.076 653.398 540.713 642.08 534.78L529.808 476.748C513.006 468.138 496.457 458.458 479.294 450.646C474.084 444.326 470.154 436.47 466.247 429.274Z"/>
	<path fill="#F2C69C" d="M1118.25 552.123C1123.6 545.502 1290.4 458.892 1316.5 445.126C1328.76 438.658 1342.29 433.21 1353.9 425.691C1353.89 426.628 1353.8 427.508 1353.56 428.418C1352.29 433.106 1348.81 442.061 1344.59 444.384C1329.53 450.82 1315.45 459.794 1300.94 467.374C1251.55 493.178 1203.46 521.357 1154.16 547.284C1144.94 552.136 1128.42 563.319 1119.03 565.27C1119.83 560.731 1120.28 556.407 1118.25 552.123Z"/>
	<path fill="#65D0D2" d="M1118.63 718.529C1126.93 715.083 1174.07 691.131 1177.71 686.307C1180.84 692.248 1179.9 728.446 1178.93 736.938C1176.52 740.406 1123.88 768.454 1118.41 769.603C1116.33 772.059 1112.87 773.48 1109.78 774.206C1109.94 773.57 1110.09 772.985 1110.13 772.328C1110.51 766.583 1111.27 730.175 1109.66 726.367C1109.4 725.757 1108.37 724.822 1107.91 724.275C1111.5 722.996 1115.86 721.176 1118.63 718.529Z"/>
	<path fill="#2098A6" d="M1118.63 718.529C1120.56 723.262 1121.02 763.555 1119.15 768.208C1118.91 768.817 1118.77 768.994 1118.41 769.603C1116.33 772.059 1112.87 773.48 1109.78 774.206C1109.94 773.57 1110.09 772.985 1110.13 772.328C1110.51 766.583 1111.27 730.175 1109.66 726.367C1109.4 725.757 1108.37 724.822 1107.91 724.275C1111.5 722.996 1115.86 721.176 1118.63 718.529Z"/>
	<path fill="#65D0D2" d="M1107.91 724.275C1108.37 724.822 1109.4 725.757 1109.66 726.367C1111.27 730.175 1110.51 766.583 1110.13 772.328C1110.09 772.985 1109.94 773.57 1109.78 774.206C1106.43 778.129 1052.65 806.671 1046.49 807.907C1044.7 810.172 1042.32 810.846 1039.72 811.847C1035.33 802.781 1043.04 770.643 1037.67 761.84C1041.02 760.824 1043.71 759.403 1046.49 757.305C1055.92 753.908 1100.99 729.876 1107.91 724.275Z"/>
	<path fill="#2098A6" d="M1037.67 761.84C1041.02 760.824 1043.71 759.403 1046.49 757.305C1048.3 762.613 1049.21 802.494 1046.92 807.124C1046.79 807.391 1046.63 807.646 1046.49 807.907C1044.7 810.172 1042.32 810.846 1039.72 811.847C1035.33 802.781 1043.04 770.643 1037.67 761.84Z"/>
	<path fill="#F36337" d="M708.43 361.746C722.584 366.717 735.936 375.184 749.552 381.572L750.457 380.784C757.072 383.629 766.271 387.026 771.659 391.627C771.925 392.317 772.135 392.595 772.741 393.029C773.344 393.461 774.055 393.874 774.591 394.387C777.446 397.12 775.896 446.337 775.885 453.205C753.02 442.375 730.696 429.905 708.413 417.916L708.43 361.746Z"/>
	<path fill="#FBF6DF" d="M910.053 260.062C922.416 267.022 935.11 273.204 947.832 279.468C955.397 283.193 965.808 287.105 972.167 292.39C949.65 305.213 925.111 315.774 901.721 326.988L884.322 318.681C869.664 310.088 853.507 303.914 838.651 295.578C861.816 282.583 886.514 272.362 910.053 260.062Z"/>
	<path fill="#F36337" d="M990.138 675.175L991.773 675.36C994.172 682.118 992.565 708.221 992.524 716.827C974.823 739.317 955.193 760.504 935.976 781.699C928.439 790.012 920.126 801.098 911.353 807.853L910.012 807.318C910.756 796.489 910.218 785.291 910.211 774.415C910.201 756.338 910.346 738.243 909.95 720.17L911.935 718.744C923.613 713.534 982.3 682.072 990.138 675.175Z"/>
	<path fill="#FBF6DF" d="M711.042 360.758C730.641 350.374 750.368 340.26 770.143 330.219C778.826 325.81 788.548 319.565 797.885 316.957C805.06 322.709 815.156 326.861 823.386 330.993C836.121 337.386 848.834 343.779 861.423 350.457C852.575 355.021 780.106 391.186 778.548 393.778C776.138 393.375 773.937 392.478 771.659 391.627C766.271 387.026 757.072 383.629 750.457 380.784C738.358 373.029 723.932 367.138 711.042 360.758Z"/>
	<path fill="#921C2D" d="M822.613 672.808L876.671 701.188C887.618 706.952 900.374 712.382 909.95 720.17C910.346 738.243 910.201 756.338 910.211 774.415C910.218 785.291 910.756 796.489 910.012 807.318C903.063 803.305 890.454 787.739 884.462 781.389C863.938 759.64 843.767 737.131 822.21 716.402C823.64 702.156 822.771 687.136 822.613 672.808Z"/>
	<path fill="#F36337" d="M479.294 450.646C496.457 458.458 513.006 468.138 529.808 476.748L642.08 534.78C653.398 540.713 686.815 560.076 696.662 562.554C699.342 574.091 700.285 586.221 702.766 597.889C691.356 592.979 680.285 586.427 669.315 580.563L605.293 545.67L559.338 520.232C547.632 513.72 535.373 507.376 524.689 499.253C507.249 485.991 491.403 468.89 479.294 450.646Z"/>
	<path fill="#F2C69C" d="M1368.95 356.429C1369.99 358.541 1370.1 360.584 1369.99 362.888C1369.84 365.891 1369.7 369.429 1367.34 371.564C1357.93 377.874 1346.73 382.802 1336.66 388.135L1269.21 423.758C1206.88 457.401 1145.46 492.914 1082.01 524.421C1080.02 530.779 1081.41 542.259 1081.41 549.106C1081.4 561.575 1082.65 655.667 1081.72 657.91C1080.03 665.275 1071.5 680.726 1065.72 685.33C1065.78 685.143 1065.85 684.957 1065.91 684.77C1068.74 675.485 1067.07 629.399 1067.07 617.123C1067.05 585.865 1068.22 554.091 1066.75 522.887C1066.67 520.993 1066.44 519.623 1065.53 517.932C1075.7 514.268 1183.4 455.91 1185.92 453.114C1196.71 450.101 1366.9 358.696 1368.95 356.429Z"/>
	<path fill="#F2C69C" d="M445.659 355.068C521.376 396.042 598.17 435.138 674.182 475.579L725.483 502.432C734.369 507.029 743.679 511.285 752.266 516.386L752.182 679.263C746.288 671.837 741.68 663.941 737.394 655.508C739.536 612.144 738.509 568.308 738.459 524.877C728.234 518.683 716.849 513.55 706.226 507.977L644.071 475.066L447.775 371.236C446.868 365.839 446.091 360.529 445.659 355.068Z"/>
	<path fill="#F36337" d="M1119.03 565.27C1128.42 563.319 1144.94 552.136 1154.16 547.284C1203.46 521.357 1251.55 493.178 1300.94 467.374C1315.45 459.794 1329.53 450.82 1344.59 444.384C1345.28 450.219 1333.34 464.344 1329.72 468.927C1307.42 497.16 1278.45 511.904 1247.73 528.94C1238.54 534.032 1228.84 540.526 1219.23 544.542C1202.23 556.411 1179.18 567.263 1160.77 577.353C1147.56 584.593 1132.14 595.009 1118.14 600.016C1121.47 593.948 1119.7 574.147 1119.69 566.273L1119.03 565.27Z"/>
	<defs>
		<linearGradient id="gradient_1" gradientUnits="userSpaceOnUse" x1="1131.0857" y1="600.79102" x2="1011.4557" y2="505.16043">
			<stop offset="0" stop-color="#3F898E"/>
			<stop offset="1" stop-color="#75A8A5"/>
		</linearGradient>
	</defs>
	<path fill="url(#gradient_1)" d="M1019.26 492.648C1035.04 484.364 1161.81 418.311 1164.23 414.919C1166.75 419.517 1166.74 430.494 1165.43 435.558C1165.31 436.023 1165.07 436.57 1164.9 437C1161.41 440.496 1045.49 500.866 1039.39 502.676C1041.57 510.115 1041.15 702.454 1039.77 705.428C1039.69 705.601 1039.57 705.756 1039.48 705.92C1040.21 709.414 1040.38 714.505 1038.63 717.695C1032.12 718.625 1026.05 720.375 1019.76 722.282C1019.41 705.51 1020.05 688.663 1019.16 671.911L1019.26 492.648Z"/>
	<path fill="#292434" d="M822.988 623.739L886.383 657.316C893.975 661.305 902.487 667.272 910.523 669.978C918.059 668.876 974.661 632.816 989.94 626.121L991.47 626.359C993.069 629.111 992.853 636.159 991.965 639.266C991.731 640.083 991.41 640.586 990.943 641.287C993.157 643.681 992.671 648.372 992.523 651.605C992.452 653.161 992.608 655.611 991.642 656.888C992.223 662.662 993.246 669.993 990.138 675.175C982.3 682.072 923.613 713.534 911.935 718.744L909.95 720.17C900.374 712.382 887.618 706.952 876.671 701.188L822.613 672.808C822.771 687.136 823.64 702.156 822.21 716.402C819.82 705.318 822.263 672.14 823.123 660.339L822.675 659.537C819.417 650.841 822.859 633.578 822.988 623.739Z"/>
	<path fill="#921C2D" d="M989.94 626.121L991.47 626.359C993.069 629.111 992.853 636.159 991.965 639.266C991.731 640.083 991.41 640.586 990.943 641.287C983.165 647.215 923.253 680.525 915.174 683.136C913.942 683.413 912.713 683.403 911.457 683.432C909.146 680.327 910.119 675.516 910.301 671.796C927.102 663.162 943.417 653.492 959.867 644.209C969.106 638.996 982.23 633.367 989.94 626.121Z"/>
	<path fill="#F36337" d="M990.943 641.287C993.157 643.681 992.671 648.372 992.523 651.605C992.452 653.161 992.608 655.611 991.642 656.888C974.11 666.138 956.937 676.176 939.691 685.949C931.12 690.805 918.986 696.151 911.804 702.752L910.425 701.326C909.994 696.94 909.358 691.955 910.645 687.667C911.457 684.965 912.941 684.506 915.174 683.136C923.253 680.525 983.165 647.215 990.943 641.287Z"/>
	<path fill="#921C2D" d="M911.804 702.752C918.986 696.151 931.12 690.805 939.691 685.949C956.937 676.176 974.11 666.138 991.642 656.888C992.223 662.662 993.246 669.993 990.138 675.175C982.3 682.072 923.613 713.534 911.935 718.744L910.495 716.951C909.681 712.403 909.098 706.77 911.804 702.752Z"/>
	<path fill="#921C2D" d="M822.588 636.211C839.917 645.048 857.039 654.303 874.189 663.482C885.874 669.737 898.542 675.746 909.262 683.566L909.529 705.128C880.798 690.226 852.243 674.414 823.123 660.339L822.675 659.537C822.667 651.763 822.712 643.984 822.588 636.211Z"/>
	<path fill="#2098A6" d="M1259.11 548.562C1259.13 561.536 1260.77 638.568 1257.91 643.606C1252.26 649.192 1210.98 671.081 1202.97 673.628C1202.9 673.074 1203.04 672.451 1202.76 671.964C1200.49 667.93 1121.79 636.499 1117.6 631.288C1117.05 630.602 1116.62 629.294 1116.21 628.475L1116.47 626.634C1164.12 600.879 1212 575.283 1259.11 548.562Z"/>
	<path fill="#2098A6" d="M910.111 196.82C910.606 206.413 908.458 226.474 910.713 234.382L909.988 234.51C892.703 239.528 875.572 250.901 859.298 258.856C800.922 287.393 744.052 319.136 685.356 346.992L685.45 406.047C675.275 400.684 665.16 395.115 654.8 390.119L654.936 327.494C639.76 332.83 611.627 349.029 596.976 357.617C594.402 355.994 591.608 354.718 588.886 353.364C595.451 346.931 642.989 324.684 654.989 318.217L655.055 326.883L814.326 245.325C846.11 228.97 877.737 211.959 910.111 196.82Z"/>
	<path fill="#F36337" d="M447.775 371.236L644.071 475.066L706.226 507.977C716.849 513.55 728.234 518.683 738.459 524.877C738.509 568.308 739.536 612.144 737.394 655.508C719.113 621.008 711.286 580.081 710.807 541.34C625.637 498.897 542.087 452.982 457.37 409.607C453.287 396.939 450.04 384.357 447.775 371.236Z"/>
	<path fill="#F36337" d="M1367.34 371.564C1370.61 378.164 1363.99 398.623 1361.74 405.476C1361.08 407.495 1360.3 409.034 1358.84 410.586C1351.29 416.842 1333.09 424.476 1323.74 429.342L1242.38 472.087C1214.14 487.021 1186.28 502.674 1158.15 517.805C1145.77 524.465 1133.28 531.932 1120.46 537.658C1118.93 539.158 1116.31 540.141 1114.39 541.134C1114.26 542.336 1114.11 543.534 1113.88 544.721C1110.05 564.376 1094.24 646.519 1081.32 655.114C1084 643.854 1082.18 625.114 1082.16 613.014L1082.01 524.421C1145.46 492.914 1206.88 457.401 1269.21 423.758L1336.66 388.135C1346.73 382.802 1357.93 377.874 1367.34 371.564Z"/>
	<path fill="#2098A6" d="M700.655 634.318L704.072 642.636C712.768 662.769 724.283 679.681 737.872 696.801L745.4 704.679C755.534 716.672 767.928 730.013 776.714 742.785C760.202 751.279 725.84 767.772 712.412 777.872C694.815 769.788 676.884 760.274 660.096 750.603L654.019 747.454C629.812 734.305 605.163 721.959 580.861 708.976L572.388 704.784C598.76 688.383 627.644 675.118 654.887 660.149L654.885 659.472C666.474 655.111 690.161 641.622 700.655 634.318Z"/>
	<path fill="#65D0D2" d="M700.655 634.318L704.072 642.636C688.148 651.37 671.693 661.443 655.073 668.631L654.887 660.149L654.885 659.472C666.474 655.111 690.161 641.622 700.655 634.318Z"/>
	<path fill="#05495D" d="M654.817 669.243C654.881 692.778 653.957 716.749 655.034 740.231C654.975 742.66 655.215 745.279 654.019 747.454C629.812 734.305 605.163 721.959 580.861 708.976C605.43 695.867 629.756 681.287 654.817 669.243Z"/>
	<path fill="#2098A6" d="M737.872 696.801L745.4 704.679C755.534 716.672 767.928 730.013 776.714 742.785C760.202 751.279 725.84 767.772 712.412 777.872C694.815 769.788 676.884 760.274 660.096 750.603L654.019 747.454C655.215 745.279 654.975 742.66 655.034 740.231C664.788 736.893 674.954 730.406 684.074 725.567L737.872 696.801Z"/>
	<path fill="#65D0D2" d="M737.872 696.801L745.4 704.679C737.91 710.219 728.283 714.212 719.974 718.576C700.065 729.034 679.384 739.083 660.096 750.603L654.019 747.454C655.215 745.279 654.975 742.66 655.034 740.231C664.788 736.893 674.954 730.406 684.074 725.567L737.872 696.801Z"/>
	<path fill="#2098A6" d="M655.193 416.579L798.534 491.759L798.862 724.143L847.029 775.595L855.684 784.451C834.224 796.374 811.54 806.362 790.349 818.7C785.933 816.505 781.592 814.129 777.225 811.837L724.062 784.311L712.412 777.872C725.84 767.772 760.202 751.279 776.714 742.785L777.633 743.472C780.163 736.161 778.499 684.766 778.504 673.519L778.441 503.627L703.549 464.348C687.432 455.977 670.975 448.059 655.179 439.1L655.193 416.579Z"/>
	<path fill="#65D0D2" d="M776.714 742.785L777.633 743.472C779.628 747.097 782.335 749.921 785.133 752.923C764.441 762.212 743.825 773.215 724.062 784.311L712.412 777.872C725.84 767.772 760.202 751.279 776.714 742.785Z"/>
	<path fill="#65D0D2" d="M847.029 775.595L855.684 784.451C834.224 796.374 811.54 806.362 790.349 818.7C785.933 816.505 781.592 814.129 777.225 811.837C797.008 803.233 821.753 789.135 840.882 778.345L847.029 775.595Z"/>
	<path fill="#921C2D" d="M991.849 497.928C993.95 504.531 992.527 531.421 992.243 539.536L991.186 541.29L991.462 542.187C992.539 546.113 993.037 553.731 991.182 557.453L991.485 558.353C993.55 562.221 992.912 616.719 991.849 623.766L989.94 626.121C974.661 632.816 918.059 668.876 910.523 669.978C902.487 667.272 893.975 661.305 886.383 657.316L822.988 623.739L822.695 623.092C819.861 615.61 822.104 555.202 822.723 544.063C852.034 557.716 880.348 574.179 909.257 588.749C909.631 581.511 907.897 544.179 910.177 541.101C914.068 539.053 919.816 534.733 924.117 534.711C929.669 533.421 984.044 502.762 991.849 497.928Z"/>
	<path fill="#292434" d="M910.177 541.101C914.068 539.053 919.816 534.733 924.117 534.711L910.151 542.953C910.303 557.227 910.542 571.508 910.452 585.783C936.95 570.943 963.669 554.014 991.186 541.29L991.462 542.187C992.539 546.113 993.037 553.731 991.182 557.453L991.485 558.353C965.311 574.691 937.062 588.66 909.949 603.465C909.995 623.852 910.751 644.586 910.008 664.94C907.607 653.169 909.328 616.925 909.428 602.904C898.011 594.87 884.503 588.855 872.13 582.434C855.658 573.885 839.34 564.967 822.618 556.919C822.979 578.953 822.956 601.057 822.695 623.092C819.861 615.61 822.104 555.202 822.723 544.063C852.034 557.716 880.348 574.179 909.257 588.749C909.631 581.511 907.897 544.179 910.177 541.101Z"/>
	<path fill="#921C2D" d="M991.462 542.187C992.539 546.113 993.037 553.731 991.182 557.453C963.696 571.06 936.984 587.196 910.095 601.996L910.047 587.418C937.55 573.18 964.435 557.327 991.462 542.187Z"/>
	<path fill="#F36337" d="M991.849 497.928C993.95 504.531 992.527 531.421 992.243 539.536L991.186 541.29C963.669 554.014 936.95 570.943 910.452 585.783C910.542 571.508 910.303 557.227 910.151 542.953L924.117 534.711C929.669 533.421 984.044 502.762 991.849 497.928Z"/>
	<path fill="#F36337" d="M991.485 558.353C993.55 562.221 992.912 616.719 991.849 623.766L989.94 626.121C974.661 632.816 918.059 668.876 910.523 669.978L910.008 664.94C910.751 644.586 909.995 623.852 909.949 603.465C937.062 588.66 965.311 574.691 991.485 558.353Z"/>
	<defs>
		<linearGradient id="gradient_2" gradientUnits="userSpaceOnUse" x1="767.76385" y1="540.2373" x2="1062.121" y2="118.15444">
			<stop offset="0" stop-color="#105760"/>
			<stop offset="1" stop-color="#32848B"/>
		</linearGradient>
	</defs>
	<path fill="url(#gradient_2)" d="M910.499 86.8462C985.096 124.162 1058.43 164.557 1132.26 203.393L1260.83 271.365C1277.24 280.165 1294.19 288.284 1310.27 297.657C1311.18 297.427 1312.13 297.199 1312.99 296.839C1315.21 295.919 1315.93 295.596 1316.88 293.408L1318.9 294.782C1321.24 312.139 1318.03 338.721 1318.82 357.624C1316.08 361.588 1302.84 367.448 1298.11 368.822C1301.02 358.925 1299.51 321.912 1299.3 309.476L1298.21 308.529C1295.78 309.182 1293.47 309.34 1290.98 309.475C1290.36 308.223 1289.91 307.8 1288.7 307.083C1269.71 295.859 1249.58 285.956 1230.07 275.661L1125.31 220.647C1053.78 183.246 982.88 144.395 910.894 107.879L650.632 244.985C609.992 266.413 569.621 288.721 528.604 309.393L528.27 372.885C522.946 370.158 517.425 367.592 512.376 364.381C512.108 351.149 511.38 309.83 514.174 299.483C520.964 292.21 615.953 244.166 633.088 235.071L780.025 156.13C823.483 132.986 867.333 110.533 910.499 86.8462Z"/>
	<path fill="#921C2D" d="M972.167 292.39L973.519 293.283C979.113 295.139 990.731 299.575 994.727 303.768L994.98 304.741C995.554 304.691 996.742 304.421 997.257 304.541C1000.97 305.412 1103.22 356.034 1105.37 357.796C1105.83 358.169 1105.88 358.323 1106.16 358.763L1107.04 358.966C1109.11 363.485 1109.18 405.27 1107.29 410.535C1107.09 411.108 1107.01 411.207 1106.72 411.8C1107.65 414.466 1107.7 414.743 1106.93 417.454C1102.73 421.884 1048.35 450.001 1040.29 452.827L1038.51 452.605L1037.94 452.594C1037.7 453.089 1037.25 454.436 1036.9 454.764C1034.89 456.641 995.822 477.893 991.563 479.433C992.152 485.443 992.4 491.91 991.849 497.928C984.044 502.762 929.669 533.421 924.117 534.711C919.816 534.733 914.068 539.053 910.177 541.101C907.897 544.179 909.631 581.511 909.257 588.749C880.348 574.179 852.034 557.716 822.723 544.063L822.154 478.035C807.281 469.803 792.304 461.8 777.254 453.897C777.285 446.654 775.824 399.914 776.904 397.689C777.493 396.473 778.747 396.348 779.959 395.872L778.548 393.778C780.106 391.186 852.575 355.021 861.423 350.457C848.834 343.779 836.121 337.386 823.386 330.993C815.156 326.861 805.06 322.709 797.885 316.957L798.951 316.066C811.756 308.618 825.36 302.126 838.651 295.578C853.507 303.914 869.664 310.088 884.322 318.681L901.721 326.988C925.111 315.774 949.65 305.213 972.167 292.39Z"/>
	<path fill="#F39B60" d="M973.519 293.283C979.113 295.139 990.731 299.575 994.727 303.768C971.121 314.453 948.296 327.559 924.983 338.962L904.333 328.09C927.361 316.697 951.252 306.078 973.519 293.283Z"/>
	<path fill="#F36337" d="M863.155 351.866C871.303 352.344 897.482 367.615 906.494 372.22C878.377 385.391 850.919 399.977 823.331 414.213C822.904 414.508 823.006 414.473 822.416 414.677C818.74 415.945 786.261 397.739 780.222 394.729C807.693 380.21 835.069 365.16 863.155 351.866Z"/>
	<path fill="#F39B60" d="M1105.8 359.904C1105.99 360.247 1106.18 360.592 1106.35 360.948C1108.65 365.9 1108.61 406.559 1106.72 411.8C1107.65 414.466 1107.7 414.743 1106.93 417.454C1102.73 421.884 1048.35 450.001 1040.29 452.827L1038.51 452.605C1039.79 443.874 1040.42 402.853 1037.7 396.212C1046.25 393.806 1102.18 364.778 1105.8 359.904Z"/>
	<path fill="#F36337" d="M910.563 463.438C939.317 449.718 967.198 433.779 995.299 418.759C1008.81 411.537 1023.48 405.47 1036.55 397.58C1038.92 415.491 1036.07 434.396 1037.94 452.594C1037.7 453.089 1037.25 454.436 1036.9 454.764C1034.89 456.641 995.822 477.893 991.563 479.433C981.692 485.138 920.323 516.832 916.945 521.25C915.07 521.854 913.227 522.565 911.378 523.243C909.393 512.579 910.672 476.755 910.563 463.438Z"/>
	<path fill="#F39B60" d="M798.951 316.066C811.756 308.618 825.36 302.126 838.651 295.578C853.507 303.914 869.664 310.088 884.322 318.681C885.946 322.559 987.298 372.135 1000.49 378.662C1008.95 382.851 1027.59 390.061 1034.07 396.086C1030.64 400.675 1004.48 411.981 997.84 415.442C979.585 403.768 948.969 390.73 928.44 380.746C885.062 359.65 841.722 338.382 798.951 316.066Z"/>
	<path fill="#FBF6DF" d="M909.116 373.591C917.934 376.868 926.751 381.926 935.242 386.035C955.698 395.935 975.994 406.14 996.269 416.401C967.067 430.998 938.616 447.177 909.482 461.944L822.751 416.684C851.954 403.198 879.35 386.047 909.116 373.591Z"/>
	<path fill="#FBF6DF" d="M994.98 304.741C995.554 304.691 996.742 304.421 997.257 304.541C1000.97 305.412 1103.22 356.034 1105.37 357.796C1105.83 358.169 1105.88 358.323 1106.16 358.763C1094.81 366.161 1048.39 390.982 1036.71 394.541C1031.27 389.53 1014.19 382.992 1007.02 379.438L927.378 340.012C948.163 328.81 976.221 317.643 994.98 304.741Z"/>
	<path fill="#FBF6DF" d="M528.604 309.393C569.621 288.721 609.992 266.413 650.632 244.985L910.894 107.879C982.88 144.395 1053.78 183.246 1125.31 220.647L1230.07 275.661C1249.58 285.956 1269.71 295.859 1288.7 307.083C1289.91 307.8 1290.36 308.223 1290.98 309.475C1292.84 314.005 1293.18 367.556 1291.24 371.73C1291.1 372.032 1290.94 372.325 1290.79 372.623C1286.86 376.678 1265.26 387.239 1260.04 388.451C1257.87 392.26 1245.95 397.566 1241.41 398.772C1239.67 399.235 1238.05 398.727 1236.39 398.172C1233.47 394.66 1196.59 377.921 1190.67 375.898L1190.45 375.196C1186.56 373.097 1182.82 371.3 1178.63 369.87L1177.76 368.86C1159.97 359.9 1142.3 350.356 1124.17 342.147L1123.9 341.405C1118.75 339.635 1114.05 336.657 1108.8 334.895L1106.8 333.352C1100.66 328.157 1060.9 310.155 1050.2 304.954C1045.66 302.222 1040.57 300.139 1035.78 297.867C1030.32 292.802 993.853 276.111 983.82 270.72C978.621 268.283 973.544 265.701 968.484 262.988L910.713 234.382C908.458 226.474 910.606 206.413 910.111 196.82C877.737 211.959 846.11 228.97 814.326 245.325L655.055 326.883L654.989 318.217C654.728 309.742 656.913 285.838 654.073 279.246L594.029 310.752C584.119 315.939 573.124 320.795 563.885 327.001C561.655 328.499 559.886 329.561 559.08 332.275C556.659 340.437 557.544 378.124 558.519 387.994C549.559 385.965 536.673 377.337 528.27 372.885L528.604 309.393Z"/>
	<path fill="#65D0D2" d="M1189.44 291.864C1195.63 293.569 1256.92 325.158 1258.95 327.895C1261.57 333.529 1261.23 380.437 1260.04 388.451C1257.87 392.26 1245.95 397.566 1241.41 398.772C1239.67 399.235 1238.05 398.727 1236.39 398.172C1233.47 394.66 1196.59 377.921 1190.67 375.898L1190.45 375.196C1191.37 365.545 1192.14 296.755 1189.44 291.864Z"/>
	<path fill="#65D0D2" d="M1123.14 256.829C1129.06 258.376 1176.24 282.747 1177.48 284.931C1177.55 285.05 1177.58 285.186 1177.63 285.313C1181.32 286.456 1187.29 288.608 1189.44 291.864C1192.14 296.755 1191.37 365.545 1190.45 375.196C1186.56 373.097 1182.82 371.3 1178.63 369.87L1177.76 368.86C1159.97 359.9 1142.3 350.356 1124.17 342.147L1123.9 341.405C1125.24 333.44 1125.17 262.058 1123.14 256.829Z"/>
	<path fill="#2098A6" d="M1177.63 285.313C1181.32 286.456 1187.29 288.608 1189.44 291.864C1192.14 296.755 1191.37 365.545 1190.45 375.196C1186.56 373.097 1182.82 371.3 1178.63 369.87L1177.76 368.86C1179.76 362.539 1179.28 293.551 1177.63 285.313Z"/>
	<path fill="#65D0D2" d="M1049.97 217.926C1056.43 219.842 1106.28 245.884 1108.62 248.852C1112.17 249.987 1121.3 253.597 1123.14 256.829C1125.17 262.058 1125.24 333.44 1123.9 341.405C1118.75 339.635 1114.05 336.657 1108.8 334.895L1106.8 333.352C1100.66 328.157 1060.9 310.155 1050.2 304.954C1050.67 304.074 1050.99 303.219 1051.18 302.236C1052.54 295.338 1052.24 230.529 1051.4 221.705C1051.26 220.243 1050.79 219.143 1049.97 217.926Z"/>
	<path fill="#2098A6" d="M1108.62 248.852C1112.17 249.987 1121.3 253.597 1123.14 256.829C1125.17 262.058 1125.24 333.44 1123.9 341.405C1118.75 339.635 1114.05 336.657 1108.8 334.895L1106.8 333.352C1110.39 327.129 1108.74 261.22 1108.62 248.852Z"/>
	<path fill="#65D0D2" d="M910.001 144.14C914.584 144.704 963.241 170.181 968.86 174.389L983.756 182.115C991.397 186.099 1034.77 207.465 1036.48 210.596C1040.49 211.892 1047.58 214.419 1049.97 217.926C1050.79 219.143 1051.26 220.243 1051.4 221.705C1052.24 230.529 1052.54 295.338 1051.18 302.236C1050.99 303.219 1050.67 304.074 1050.2 304.954C1045.66 302.222 1040.57 300.139 1035.78 297.867C1030.32 292.802 993.853 276.111 983.82 270.72C978.621 268.283 973.544 265.701 968.484 262.988L910.713 234.382C908.458 226.474 910.606 206.413 910.111 196.82C877.737 211.959 846.11 228.97 814.326 245.325L655.055 326.883L654.989 318.217C654.728 309.742 656.913 285.838 654.073 279.246C661.642 274.495 670.15 270.613 678.088 266.446L729.159 239.686L910.001 144.14Z"/>
	<path fill="#2098A6" d="M968.86 174.389L983.756 182.115L983.82 270.72C978.621 268.283 973.544 265.701 968.484 262.988C970.415 233.667 967.651 203.8 968.86 174.389Z"/>
	<path fill="#65D0D2" d="M983.756 182.115C991.397 186.099 1034.77 207.465 1036.48 210.596C1040.49 211.892 1047.58 214.419 1049.97 217.926C1050.79 219.143 1051.26 220.243 1051.4 221.705C1052.24 230.529 1052.54 295.338 1051.18 302.236C1050.99 303.219 1050.67 304.074 1050.2 304.954C1045.66 302.222 1040.57 300.139 1035.78 297.867C1030.32 292.802 993.853 276.111 983.82 270.72L983.756 182.115Z"/>
	<path fill="#2098A6" d="M1036.48 210.596C1040.49 211.892 1047.58 214.419 1049.97 217.926C1050.79 219.143 1051.26 220.243 1051.4 221.705C1052.24 230.529 1052.54 295.338 1051.18 302.236C1050.99 303.219 1050.67 304.074 1050.2 304.954C1045.66 302.222 1040.57 300.139 1035.78 297.867C1036.24 297.174 1037.06 296.243 1037.35 295.494C1038.93 291.407 1037.83 217.598 1036.48 210.596Z"/>
	<path fill="#2098A6" d="M910.001 144.14C911.517 150.008 911.284 179.742 909.889 185.832C876.912 203.916 843.065 220.378 809.551 237.436C757.806 263.773 706.024 290.526 654.989 318.217C654.728 309.742 656.913 285.838 654.073 279.246C661.642 274.495 670.15 270.613 678.088 266.446L729.159 239.686L910.001 144.14Z"/>
</svg>
